<mxfile host="app.diagrams.net" modified="2021-08-05T04:32:09.504Z" agent="5.0 (Windows NT 6.1; Win64; x64) AppleWebKit/537.36 (KHTML, like Gecko) Chrome/92.0.4515.107 Safari/537.36" etag="Nb1dodVtyHRhcJpSZw3o" version="14.9.4" type="github">
  <diagram id="3lNbitN_uBYjp5Ojv3sX" name="第 1 页">
    <mxGraphModel dx="1102" dy="1751" grid="1" gridSize="10" guides="1" tooltips="1" connect="1" arrows="1" fold="1" page="1" pageScale="1" pageWidth="827" pageHeight="1169" math="0" shadow="0">
      <root>
        <mxCell id="0" />
        <mxCell id="1" parent="0" />
        <mxCell id="yxe6i7_vjsqYE6NYX4My-2" value="1" style="rounded=0;whiteSpace=wrap;html=1;fontSize=16;fillColor=#dae8fc;strokeColor=#6c8ebf;" vertex="1" parent="1">
          <mxGeometry x="120" y="180" width="80" height="40" as="geometry" />
        </mxCell>
        <mxCell id="yxe6i7_vjsqYE6NYX4My-3" value="小林" style="rounded=0;whiteSpace=wrap;html=1;fontSize=16;fillColor=#dae8fc;strokeColor=#6c8ebf;" vertex="1" parent="1">
          <mxGeometry x="200" y="180" width="80" height="40" as="geometry" />
        </mxCell>
        <mxCell id="yxe6i7_vjsqYE6NYX4My-4" value="1000000" style="rounded=0;whiteSpace=wrap;html=1;fontSize=16;fillColor=#dae8fc;strokeColor=#6c8ebf;" vertex="1" parent="1">
          <mxGeometry x="280" y="180" width="80" height="40" as="geometry" />
        </mxCell>
        <mxCell id="yxe6i7_vjsqYE6NYX4My-5" value="50" style="rounded=0;whiteSpace=wrap;html=1;fontSize=16;fillColor=#f5f5f5;strokeColor=#666666;fontColor=#333333;" vertex="1" parent="1">
          <mxGeometry x="360" y="180" width="80" height="40" as="geometry" />
        </mxCell>
        <mxCell id="yxe6i7_vjsqYE6NYX4My-6" value="" style="rounded=0;whiteSpace=wrap;html=1;fontSize=16;fillColor=#f5f5f5;strokeColor=#666666;fontColor=#333333;" vertex="1" parent="1">
          <mxGeometry x="440" y="180" width="80" height="40" as="geometry" />
        </mxCell>
        <mxCell id="yxe6i7_vjsqYE6NYX4My-7" value="id" style="text;html=1;align=center;verticalAlign=middle;resizable=0;points=[];autosize=1;strokeColor=none;fontSize=16;" vertex="1" parent="1">
          <mxGeometry x="145" y="160" width="30" height="20" as="geometry" />
        </mxCell>
        <mxCell id="yxe6i7_vjsqYE6NYX4My-8" value="name" style="text;html=1;align=center;verticalAlign=middle;resizable=0;points=[];autosize=1;strokeColor=none;fontSize=16;" vertex="1" parent="1">
          <mxGeometry x="210" y="160" width="60" height="20" as="geometry" />
        </mxCell>
        <mxCell id="yxe6i7_vjsqYE6NYX4My-9" value="balance" style="text;html=1;align=center;verticalAlign=middle;resizable=0;points=[];autosize=1;strokeColor=none;fontSize=16;" vertex="1" parent="1">
          <mxGeometry x="285" y="160" width="70" height="20" as="geometry" />
        </mxCell>
        <mxCell id="yxe6i7_vjsqYE6NYX4My-10" value="trx_id" style="text;html=1;align=center;verticalAlign=middle;resizable=0;points=[];autosize=1;strokeColor=none;fontSize=16;" vertex="1" parent="1">
          <mxGeometry x="375" y="160" width="50" height="20" as="geometry" />
        </mxCell>
        <mxCell id="yxe6i7_vjsqYE6NYX4My-11" value="roll_pointer" style="text;html=1;align=center;verticalAlign=middle;resizable=0;points=[];autosize=1;strokeColor=none;fontSize=16;" vertex="1" parent="1">
          <mxGeometry x="440" y="160" width="90" height="20" as="geometry" />
        </mxCell>
        <mxCell id="yxe6i7_vjsqYE6NYX4My-14" value="" style="ellipse;whiteSpace=wrap;html=1;aspect=fixed;fontSize=16;" vertex="1" parent="1">
          <mxGeometry x="475" y="195" width="10" height="10" as="geometry" />
        </mxCell>
        <mxCell id="yxe6i7_vjsqYE6NYX4My-16" value="1" style="rounded=0;whiteSpace=wrap;html=1;fontSize=16;fillColor=#dae8fc;strokeColor=#6c8ebf;" vertex="1" parent="1">
          <mxGeometry x="120" y="70" width="80" height="40" as="geometry" />
        </mxCell>
        <mxCell id="yxe6i7_vjsqYE6NYX4My-17" value="小林" style="rounded=0;whiteSpace=wrap;html=1;fontSize=16;fillColor=#dae8fc;strokeColor=#6c8ebf;" vertex="1" parent="1">
          <mxGeometry x="200" y="70" width="80" height="40" as="geometry" />
        </mxCell>
        <mxCell id="yxe6i7_vjsqYE6NYX4My-18" value="100" style="rounded=0;whiteSpace=wrap;html=1;fontSize=16;fillColor=#dae8fc;strokeColor=#6c8ebf;" vertex="1" parent="1">
          <mxGeometry x="280" y="70" width="80" height="40" as="geometry" />
        </mxCell>
        <mxCell id="yxe6i7_vjsqYE6NYX4My-19" value="&lt;font color=&quot;#9933ff&quot; style=&quot;font-size: 16px;&quot;&gt;&lt;b style=&quot;font-size: 16px;&quot;&gt;100&lt;/b&gt;&lt;/font&gt;" style="rounded=0;whiteSpace=wrap;html=1;fontSize=16;fillColor=#f5f5f5;strokeColor=#666666;fontColor=#333333;" vertex="1" parent="1">
          <mxGeometry x="360" y="70" width="80" height="40" as="geometry" />
        </mxCell>
        <mxCell id="yxe6i7_vjsqYE6NYX4My-20" value="" style="rounded=0;whiteSpace=wrap;html=1;fontSize=16;fillColor=#f5f5f5;strokeColor=#666666;fontColor=#333333;" vertex="1" parent="1">
          <mxGeometry x="440" y="70" width="80" height="40" as="geometry" />
        </mxCell>
        <mxCell id="yxe6i7_vjsqYE6NYX4My-21" value="id" style="text;html=1;align=center;verticalAlign=middle;resizable=0;points=[];autosize=1;strokeColor=none;fontSize=16;" vertex="1" parent="1">
          <mxGeometry x="145" y="50" width="30" height="20" as="geometry" />
        </mxCell>
        <mxCell id="yxe6i7_vjsqYE6NYX4My-22" value="name" style="text;html=1;align=center;verticalAlign=middle;resizable=0;points=[];autosize=1;strokeColor=none;fontSize=16;" vertex="1" parent="1">
          <mxGeometry x="210" y="50" width="60" height="20" as="geometry" />
        </mxCell>
        <mxCell id="yxe6i7_vjsqYE6NYX4My-23" value="balance" style="text;html=1;align=center;verticalAlign=middle;resizable=0;points=[];autosize=1;strokeColor=none;fontSize=16;" vertex="1" parent="1">
          <mxGeometry x="285" y="50" width="70" height="20" as="geometry" />
        </mxCell>
        <mxCell id="yxe6i7_vjsqYE6NYX4My-24" value="trx_id" style="text;html=1;align=center;verticalAlign=middle;resizable=0;points=[];autosize=1;strokeColor=none;fontSize=16;" vertex="1" parent="1">
          <mxGeometry x="375" y="50" width="50" height="20" as="geometry" />
        </mxCell>
        <mxCell id="yxe6i7_vjsqYE6NYX4My-25" value="roll_pointer" style="text;html=1;align=center;verticalAlign=middle;resizable=0;points=[];autosize=1;strokeColor=none;fontSize=16;" vertex="1" parent="1">
          <mxGeometry x="440" y="50" width="90" height="20" as="geometry" />
        </mxCell>
        <mxCell id="yxe6i7_vjsqYE6NYX4My-63" style="edgeStyle=orthogonalEdgeStyle;rounded=0;orthogonalLoop=1;jettySize=auto;html=1;entryX=0;entryY=0.5;entryDx=0;entryDy=0;fontSize=16;" edge="1" parent="1" source="yxe6i7_vjsqYE6NYX4My-26" target="yxe6i7_vjsqYE6NYX4My-2">
          <mxGeometry relative="1" as="geometry">
            <Array as="points">
              <mxPoint x="480" y="140" />
              <mxPoint x="100" y="140" />
              <mxPoint x="100" y="200" />
            </Array>
          </mxGeometry>
        </mxCell>
        <mxCell id="yxe6i7_vjsqYE6NYX4My-26" value="" style="ellipse;whiteSpace=wrap;html=1;aspect=fixed;fontSize=16;" vertex="1" parent="1">
          <mxGeometry x="475" y="85" width="10" height="10" as="geometry" />
        </mxCell>
        <mxCell id="yxe6i7_vjsqYE6NYX4My-27" value="1" style="rounded=0;whiteSpace=wrap;html=1;fontSize=16;fillColor=#dae8fc;strokeColor=#6c8ebf;" vertex="1" parent="1">
          <mxGeometry x="120" y="-50" width="80" height="40" as="geometry" />
        </mxCell>
        <mxCell id="yxe6i7_vjsqYE6NYX4My-28" value="小林" style="rounded=0;whiteSpace=wrap;html=1;fontSize=16;fillColor=#dae8fc;strokeColor=#6c8ebf;" vertex="1" parent="1">
          <mxGeometry x="200" y="-50" width="80" height="40" as="geometry" />
        </mxCell>
        <mxCell id="yxe6i7_vjsqYE6NYX4My-29" value="200" style="rounded=0;whiteSpace=wrap;html=1;fontSize=16;fillColor=#dae8fc;strokeColor=#6c8ebf;" vertex="1" parent="1">
          <mxGeometry x="280" y="-50" width="80" height="40" as="geometry" />
        </mxCell>
        <mxCell id="yxe6i7_vjsqYE6NYX4My-30" value="&lt;font color=&quot;#9933ff&quot; style=&quot;font-size: 16px;&quot;&gt;&lt;b style=&quot;font-size: 16px;&quot;&gt;100&lt;/b&gt;&lt;/font&gt;" style="rounded=0;whiteSpace=wrap;html=1;fontSize=16;fillColor=#f5f5f5;strokeColor=#666666;fontColor=#333333;" vertex="1" parent="1">
          <mxGeometry x="360" y="-50" width="80" height="40" as="geometry" />
        </mxCell>
        <mxCell id="yxe6i7_vjsqYE6NYX4My-31" value="" style="rounded=0;whiteSpace=wrap;html=1;fontSize=16;fillColor=#f5f5f5;strokeColor=#666666;fontColor=#333333;" vertex="1" parent="1">
          <mxGeometry x="440" y="-50" width="80" height="40" as="geometry" />
        </mxCell>
        <mxCell id="yxe6i7_vjsqYE6NYX4My-32" value="id" style="text;html=1;align=center;verticalAlign=middle;resizable=0;points=[];autosize=1;strokeColor=none;fontSize=16;" vertex="1" parent="1">
          <mxGeometry x="145" y="-70" width="30" height="20" as="geometry" />
        </mxCell>
        <mxCell id="yxe6i7_vjsqYE6NYX4My-33" value="name" style="text;html=1;align=center;verticalAlign=middle;resizable=0;points=[];autosize=1;strokeColor=none;fontSize=16;" vertex="1" parent="1">
          <mxGeometry x="210" y="-70" width="60" height="20" as="geometry" />
        </mxCell>
        <mxCell id="yxe6i7_vjsqYE6NYX4My-34" value="balance" style="text;html=1;align=center;verticalAlign=middle;resizable=0;points=[];autosize=1;strokeColor=none;fontSize=16;" vertex="1" parent="1">
          <mxGeometry x="285" y="-70" width="70" height="20" as="geometry" />
        </mxCell>
        <mxCell id="yxe6i7_vjsqYE6NYX4My-35" value="trx_id" style="text;html=1;align=center;verticalAlign=middle;resizable=0;points=[];autosize=1;strokeColor=none;fontSize=16;" vertex="1" parent="1">
          <mxGeometry x="375" y="-70" width="50" height="20" as="geometry" />
        </mxCell>
        <mxCell id="yxe6i7_vjsqYE6NYX4My-36" value="roll_pointer" style="text;html=1;align=center;verticalAlign=middle;resizable=0;points=[];autosize=1;strokeColor=none;fontSize=16;" vertex="1" parent="1">
          <mxGeometry x="440" y="-70" width="90" height="20" as="geometry" />
        </mxCell>
        <mxCell id="yxe6i7_vjsqYE6NYX4My-62" style="edgeStyle=orthogonalEdgeStyle;rounded=0;orthogonalLoop=1;jettySize=auto;html=1;entryX=0;entryY=0.5;entryDx=0;entryDy=0;fontSize=16;" edge="1" parent="1" source="yxe6i7_vjsqYE6NYX4My-37" target="yxe6i7_vjsqYE6NYX4My-16">
          <mxGeometry relative="1" as="geometry">
            <Array as="points">
              <mxPoint x="480" y="20" />
              <mxPoint x="100" y="20" />
              <mxPoint x="100" y="90" />
            </Array>
          </mxGeometry>
        </mxCell>
        <mxCell id="yxe6i7_vjsqYE6NYX4My-37" value="" style="ellipse;whiteSpace=wrap;html=1;aspect=fixed;fontSize=16;" vertex="1" parent="1">
          <mxGeometry x="475" y="-35" width="10" height="10" as="geometry" />
        </mxCell>
        <mxCell id="yxe6i7_vjsqYE6NYX4My-38" value="1" style="rounded=0;whiteSpace=wrap;html=1;fontSize=16;fillColor=#dae8fc;strokeColor=#6c8ebf;" vertex="1" parent="1">
          <mxGeometry x="120" y="-170" width="80" height="40" as="geometry" />
        </mxCell>
        <mxCell id="yxe6i7_vjsqYE6NYX4My-39" value="小林" style="rounded=0;whiteSpace=wrap;html=1;fontSize=16;fillColor=#dae8fc;strokeColor=#6c8ebf;" vertex="1" parent="1">
          <mxGeometry x="200" y="-170" width="80" height="40" as="geometry" />
        </mxCell>
        <mxCell id="yxe6i7_vjsqYE6NYX4My-40" value="300" style="rounded=0;whiteSpace=wrap;html=1;fontSize=16;fillColor=#dae8fc;strokeColor=#6c8ebf;" vertex="1" parent="1">
          <mxGeometry x="280" y="-170" width="80" height="40" as="geometry" />
        </mxCell>
        <mxCell id="yxe6i7_vjsqYE6NYX4My-41" value="&lt;b style=&quot;font-size: 16px;&quot;&gt;&lt;font color=&quot;#ff9933&quot; style=&quot;font-size: 16px;&quot;&gt;200&lt;/font&gt;&lt;/b&gt;" style="rounded=0;whiteSpace=wrap;html=1;fontSize=16;fillColor=#f5f5f5;strokeColor=#666666;fontColor=#333333;" vertex="1" parent="1">
          <mxGeometry x="360" y="-170" width="80" height="40" as="geometry" />
        </mxCell>
        <mxCell id="yxe6i7_vjsqYE6NYX4My-42" value="" style="rounded=0;whiteSpace=wrap;html=1;fontSize=16;fillColor=#f5f5f5;strokeColor=#666666;fontColor=#333333;" vertex="1" parent="1">
          <mxGeometry x="440" y="-170" width="80" height="40" as="geometry" />
        </mxCell>
        <mxCell id="yxe6i7_vjsqYE6NYX4My-43" value="id" style="text;html=1;align=center;verticalAlign=middle;resizable=0;points=[];autosize=1;strokeColor=none;fontSize=16;" vertex="1" parent="1">
          <mxGeometry x="145" y="-190" width="30" height="20" as="geometry" />
        </mxCell>
        <mxCell id="yxe6i7_vjsqYE6NYX4My-44" value="name" style="text;html=1;align=center;verticalAlign=middle;resizable=0;points=[];autosize=1;strokeColor=none;fontSize=16;" vertex="1" parent="1">
          <mxGeometry x="210" y="-190" width="60" height="20" as="geometry" />
        </mxCell>
        <mxCell id="yxe6i7_vjsqYE6NYX4My-45" value="balance" style="text;html=1;align=center;verticalAlign=middle;resizable=0;points=[];autosize=1;strokeColor=none;fontSize=16;" vertex="1" parent="1">
          <mxGeometry x="285" y="-190" width="70" height="20" as="geometry" />
        </mxCell>
        <mxCell id="yxe6i7_vjsqYE6NYX4My-46" value="trx_id" style="text;html=1;align=center;verticalAlign=middle;resizable=0;points=[];autosize=1;strokeColor=none;fontSize=16;" vertex="1" parent="1">
          <mxGeometry x="375" y="-190" width="50" height="20" as="geometry" />
        </mxCell>
        <mxCell id="yxe6i7_vjsqYE6NYX4My-47" value="roll_pointer" style="text;html=1;align=center;verticalAlign=middle;resizable=0;points=[];autosize=1;strokeColor=none;fontSize=16;" vertex="1" parent="1">
          <mxGeometry x="440" y="-190" width="90" height="20" as="geometry" />
        </mxCell>
        <mxCell id="yxe6i7_vjsqYE6NYX4My-61" style="edgeStyle=orthogonalEdgeStyle;rounded=0;orthogonalLoop=1;jettySize=auto;html=1;entryX=0;entryY=0.5;entryDx=0;entryDy=0;fontSize=16;" edge="1" parent="1" source="yxe6i7_vjsqYE6NYX4My-48" target="yxe6i7_vjsqYE6NYX4My-27">
          <mxGeometry relative="1" as="geometry">
            <Array as="points">
              <mxPoint x="480" y="-80" />
              <mxPoint x="100" y="-80" />
              <mxPoint x="100" y="-30" />
            </Array>
          </mxGeometry>
        </mxCell>
        <mxCell id="yxe6i7_vjsqYE6NYX4My-48" value="" style="ellipse;whiteSpace=wrap;html=1;aspect=fixed;fontSize=16;" vertex="1" parent="1">
          <mxGeometry x="475" y="-155" width="10" height="10" as="geometry" />
        </mxCell>
        <mxCell id="yxe6i7_vjsqYE6NYX4My-49" value="1" style="rounded=0;whiteSpace=wrap;html=1;fontSize=16;fillColor=#d5e8d4;strokeColor=#82b366;" vertex="1" parent="1">
          <mxGeometry x="120" y="-280" width="80" height="40" as="geometry" />
        </mxCell>
        <mxCell id="yxe6i7_vjsqYE6NYX4My-50" value="小林" style="rounded=0;whiteSpace=wrap;html=1;fontSize=16;fillColor=#d5e8d4;strokeColor=#82b366;" vertex="1" parent="1">
          <mxGeometry x="200" y="-280" width="80" height="40" as="geometry" />
        </mxCell>
        <mxCell id="yxe6i7_vjsqYE6NYX4My-51" value="400" style="rounded=0;whiteSpace=wrap;html=1;fontSize=16;fillColor=#d5e8d4;strokeColor=#82b366;" vertex="1" parent="1">
          <mxGeometry x="280" y="-280" width="80" height="40" as="geometry" />
        </mxCell>
        <mxCell id="yxe6i7_vjsqYE6NYX4My-52" value="&lt;font color=&quot;#ff9933&quot; style=&quot;font-size: 16px;&quot;&gt;&lt;b style=&quot;font-size: 16px;&quot;&gt;200&lt;/b&gt;&lt;/font&gt;" style="rounded=0;whiteSpace=wrap;html=1;fontSize=16;fillColor=#f5f5f5;strokeColor=#666666;fontColor=#333333;" vertex="1" parent="1">
          <mxGeometry x="360" y="-280" width="80" height="40" as="geometry" />
        </mxCell>
        <mxCell id="yxe6i7_vjsqYE6NYX4My-60" style="edgeStyle=orthogonalEdgeStyle;rounded=0;orthogonalLoop=1;jettySize=auto;html=1;entryX=0;entryY=0.5;entryDx=0;entryDy=0;fontSize=16;" edge="1" parent="1" source="yxe6i7_vjsqYE6NYX4My-53" target="yxe6i7_vjsqYE6NYX4My-38">
          <mxGeometry relative="1" as="geometry">
            <Array as="points">
              <mxPoint x="480" y="-210" />
              <mxPoint x="100" y="-210" />
              <mxPoint x="100" y="-150" />
            </Array>
          </mxGeometry>
        </mxCell>
        <mxCell id="yxe6i7_vjsqYE6NYX4My-53" value="" style="rounded=0;whiteSpace=wrap;html=1;fontSize=16;fillColor=#f5f5f5;strokeColor=#666666;fontColor=#333333;" vertex="1" parent="1">
          <mxGeometry x="440" y="-280" width="80" height="40" as="geometry" />
        </mxCell>
        <mxCell id="yxe6i7_vjsqYE6NYX4My-54" value="id" style="text;html=1;align=center;verticalAlign=middle;resizable=0;points=[];autosize=1;strokeColor=none;fontSize=16;" vertex="1" parent="1">
          <mxGeometry x="145" y="-300" width="30" height="20" as="geometry" />
        </mxCell>
        <mxCell id="yxe6i7_vjsqYE6NYX4My-55" value="name" style="text;html=1;align=center;verticalAlign=middle;resizable=0;points=[];autosize=1;strokeColor=none;fontSize=16;" vertex="1" parent="1">
          <mxGeometry x="210" y="-300" width="60" height="20" as="geometry" />
        </mxCell>
        <mxCell id="yxe6i7_vjsqYE6NYX4My-56" value="balance" style="text;html=1;align=center;verticalAlign=middle;resizable=0;points=[];autosize=1;strokeColor=none;fontSize=16;" vertex="1" parent="1">
          <mxGeometry x="285" y="-300" width="70" height="20" as="geometry" />
        </mxCell>
        <mxCell id="yxe6i7_vjsqYE6NYX4My-57" value="trx_id" style="text;html=1;align=center;verticalAlign=middle;resizable=0;points=[];autosize=1;strokeColor=none;fontSize=16;" vertex="1" parent="1">
          <mxGeometry x="375" y="-300" width="50" height="20" as="geometry" />
        </mxCell>
        <mxCell id="yxe6i7_vjsqYE6NYX4My-58" value="roll_pointer" style="text;html=1;align=center;verticalAlign=middle;resizable=0;points=[];autosize=1;strokeColor=none;fontSize=16;" vertex="1" parent="1">
          <mxGeometry x="440" y="-300" width="90" height="20" as="geometry" />
        </mxCell>
        <mxCell id="yxe6i7_vjsqYE6NYX4My-59" value="" style="ellipse;whiteSpace=wrap;html=1;aspect=fixed;fontSize=16;" vertex="1" parent="1">
          <mxGeometry x="475" y="-265" width="10" height="10" as="geometry" />
        </mxCell>
        <mxCell id="yxe6i7_vjsqYE6NYX4My-64" value="" style="shape=curlyBracket;whiteSpace=wrap;html=1;rounded=1;flipH=1;fontSize=16;" vertex="1" parent="1">
          <mxGeometry x="530" y="-155" width="40" height="360" as="geometry" />
        </mxCell>
        <mxCell id="yxe6i7_vjsqYE6NYX4My-65" value="undo 日志" style="text;html=1;align=center;verticalAlign=middle;resizable=0;points=[];autosize=1;strokeColor=none;fontSize=16;" vertex="1" parent="1">
          <mxGeometry x="570" y="15" width="90" height="20" as="geometry" />
        </mxCell>
        <mxCell id="yxe6i7_vjsqYE6NYX4My-66" value="页面的记录" style="text;html=1;align=center;verticalAlign=middle;resizable=0;points=[];autosize=1;strokeColor=none;fontSize=16;" vertex="1" parent="1">
          <mxGeometry x="20" y="-270" width="100" height="20" as="geometry" />
        </mxCell>
      </root>
    </mxGraphModel>
  </diagram>
</mxfile>
